<svg width="16" height="16" viewBox="0 0 16 16" fill="none" xmlns="http://www.w3.org/2000/svg">
<circle cx="8" cy="8" r="8" fill="black" fill-opacity="0.21"/>
<path d="M10.9994 8.47188C10.9934 8.28812 10.9214 8.11299 10.7971 7.97978L7.26717 4.23054C7.13186 4.08698 6.94615 4.0041 6.75091 4.00015C6.55567 3.99619 6.3669 4.07148 6.2261 4.20945C6.0853 4.34742 6.00402 4.53677 6.00015 4.73584C5.99627 4.93492 6.0701 5.12741 6.20542 5.27097L9.24358 8.5L6.20542 11.729C6.0701 11.8726 5.99627 12.0651 6.00015 12.2642C6.00402 12.4632 6.0853 12.6526 6.2261 12.7905C6.3669 12.9285 6.55568 13.0038 6.75091 12.9999C6.94615 12.9959 7.13186 12.913 7.26717 12.7695L10.7971 9.02022C10.8652 8.94733 10.9182 8.86122 10.9529 8.76702C10.9877 8.67281 11.0035 8.57244 10.9994 8.47188Z" fill="white"/>
</svg>
